<svg width="224" height="269" viewBox="0 0 224 269" fill="none" xmlns="http://www.w3.org/2000/svg">
<path d="M14.413 76.3624L15.4416 75.7444L10.5451 73.6839L11.7183 71.5978C11.9458 71.1997 11.9565 70.7827 11.6682 70.3959L10.8142 69.2851L9.90897 69.829L10.8838 71.1098L8.5539 75.2162L4.55746 68.5644L3.65227 69.1083L9.70874 79.1888L10.6139 78.645L9.13071 76.1763L10.0654 74.5321L14.413 76.3624Z" fill="black"/>
<path d="M21.1009 70.2566C21.436 71.0181 22.3475 72.2952 24.4271 71.3802C26.1259 70.6328 26.4593 69.245 26.2607 68.0389L26.5536 67.91L26.7293 68.7067L26.9226 69.146C27.1482 69.6586 27.5699 69.8227 28.0825 69.5971L29.3127 69.0559L28.9519 68.2358L27.8828 68.7061L26.4266 65.3963C25.6147 63.551 23.8913 62.6137 21.8556 63.5093C19.7906 64.4179 19.3483 66.2731 19.9798 67.7083L20.9463 67.283C20.2827 65.7746 21.1327 64.8063 22.2164 64.3295C23.5199 63.756 24.6118 64.1321 25.3504 65.5726L22.456 67.1782C20.9241 68.027 20.6048 69.1289 21.1009 70.2566ZM22.0288 69.7434C21.6873 68.9672 22.0353 68.4471 22.9632 67.9339L25.7113 66.3927C26.4265 68.0184 25.8822 69.7611 24.1541 70.5214C23.2168 70.9338 22.4348 70.6661 22.0288 69.7434Z" fill="black"/>
<path d="M36.6358 66.4169L37.6457 66.1082L35.5455 59.238L39.6318 58.1562L39.3698 57.2993L35.2683 58.3859C34.5704 58.5657 34.3673 58.9959 34.5777 59.6845L36.6358 66.4169Z" fill="black"/>
<path d="M48.9405 53.6554C49.5216 53.5424 49.9139 52.9609 49.8009 52.3798C49.6911 51.8143 49.1095 51.4221 48.5284 51.535C47.9473 51.648 47.5707 52.2264 47.6806 52.7919C47.7936 53.373 48.3594 53.7683 48.9405 53.6554ZM48.2451 63.2441L53.5852 62.2063L53.4142 61.3268L51.2311 61.7511L50.0284 55.5628C49.9216 55.0131 49.597 54.685 48.9024 54.8852L47.3623 55.3475L47.5333 56.2271L49.0577 55.7678L50.2573 61.9403L48.0742 62.3646L48.2451 63.2441Z" fill="black"/>
<path d="M69.855 52.4888C68.1294 52.5792 67.3336 53.5982 67.0894 55.053L66.8976 55.0631C66.6785 53.6326 65.8126 52.7006 64.3905 52.7751C62.6649 52.8655 61.8691 53.8845 61.6249 55.3393L61.3053 55.356L61.4232 54.5487L61.3471 53.0947L60.2925 53.15L60.7068 61.0591L61.7614 61.0039L61.5714 57.3769C61.4609 55.2677 62.4561 53.7736 64.0699 53.6891C65.428 53.618 65.8382 54.4136 65.9186 55.9475L66.1713 60.7729L67.2259 60.7176L67.0359 57.0906C66.9254 54.9815 67.9206 53.4874 69.5344 53.4029C70.8925 53.3317 71.3027 54.1273 71.3831 55.6612L71.6358 60.4866L72.6904 60.4314L72.42 55.2705C72.3313 53.5768 71.4369 52.406 69.855 52.4888Z" fill="black"/>
<path d="M87.5143 59.3083C87.671 57.6035 85.9665 57.0933 84.4519 56.44C83.2154 55.9086 82.7434 55.6242 82.8196 54.7957C82.8928 53.999 83.6839 53.7825 84.624 53.8689C85.9623 53.9919 86.6136 54.5981 86.5067 55.7612L87.5582 55.8578C87.6725 54.615 87.1118 53.1978 84.706 52.9767C82.9693 52.8171 81.8734 53.5518 81.7621 54.7627C81.6362 56.133 82.6757 56.7105 84.1309 57.3102C85.3849 57.8272 86.5623 58.1282 86.4554 59.2913C86.3734 60.1835 85.7386 60.4465 84.4003 60.3235C82.8229 60.1786 82.0226 59.4462 82.1632 57.9167L81.1116 57.82C80.9388 59.7001 81.8328 60.9873 84.3183 61.2158C86.6126 61.4266 87.4074 60.4714 87.5143 59.3083Z" fill="black"/>
<path d="M94.7568 60.1708C94.5802 60.9838 94.567 62.5527 96.7873 63.0348C98.601 63.4287 99.6864 62.5019 100.235 61.4094L100.547 61.4773L100.221 62.2251L100.119 62.6942C100.001 63.2414 100.245 63.622 100.793 63.7408L102.106 64.026L102.296 63.1504L101.155 62.9026L101.922 59.3689C102.35 57.3988 101.507 55.6276 99.3332 55.1556C97.1285 54.6769 95.6802 55.9179 95.3475 57.4502L96.3795 57.6742C96.7292 56.0638 97.986 55.78 99.143 56.0312C100.535 56.3334 101.197 57.2795 100.948 58.8791L97.6624 58.4767C95.9242 58.263 95.0182 58.9668 94.7568 60.1708ZM95.8091 60.301C95.989 59.4723 96.5763 59.256 97.6286 59.3863L100.758 59.7547C100.381 61.4902 98.9162 62.5802 97.0712 62.1796C96.0705 61.9623 95.5952 61.2861 95.8091 60.301Z" fill="black"/>
<path d="M109.127 66.0387L114.331 67.8307L114.623 66.9835L112.52 66.2594L115.771 56.8194C116.005 56.1386 115.833 55.6562 115.126 55.4975L113.561 55.1278L113.27 55.975L114.819 56.3394L111.522 65.9156L109.419 65.1915L109.127 66.0387Z" fill="black"/>
<path d="M122.611 66.7442C121.617 68.805 121.814 71.0492 124.321 72.2588C126.555 73.3362 128.092 72.2123 128.922 71.2273L127.971 70.7685C127.106 71.8256 125.979 72.0634 124.71 71.4517C122.851 70.555 122.822 68.9596 123.437 67.4624L129.115 70.2012L129.31 69.7977C130.373 67.5928 129.717 65.7129 127.743 64.7606C125.768 63.8082 123.723 64.4384 122.611 66.7442ZM123.826 66.6554C124.438 65.3872 125.927 64.8794 127.353 65.5676C128.823 66.2766 129.165 67.6672 128.553 68.9354L123.826 66.6554Z" fill="black"/>
<path d="M142.827 73.2761C141.382 72.3286 140.004 72.5921 138.947 73.6209L138.679 73.4455L139.252 72.8642L142.156 68.4352L141.273 67.8562L134.825 77.6909L135.708 78.2699L137.699 75.2325C138.857 73.4663 140.677 72.9375 142.135 73.8938C143.3 74.657 143.515 75.5828 142.585 77.0012L139.936 81.0421L140.819 81.6211L143.539 77.4731C144.714 75.6802 144.286 74.2323 142.827 73.2761Z" fill="black"/>
<path d="M148.415 87.6293C148.931 88.059 149.722 88.0091 150.172 87.4678C150.612 86.9388 150.517 86.1523 150 85.7226C149.471 85.2826 148.705 85.353 148.265 85.882C147.815 86.4233 147.886 87.1894 148.415 87.6293Z" fill="black"/>
<path d="M161.437 99.8457L169.967 91.7506L169.24 90.9846L165.515 94.52L165.044 95.1868L164.824 94.9546C165.532 93.8414 165.458 92.3456 164.236 91.0573C162.65 89.386 160.328 89.4724 158.61 91.1024C156.881 92.7434 156.673 95.0581 158.259 96.7293C159.481 98.0176 160.971 98.1698 162.12 97.5208L162.34 97.7529L161.65 98.1876L160.71 99.0797L161.437 99.8457ZM163.588 96.3483C161.94 97.9122 160.23 97.5053 159.063 96.2751C157.895 95.0448 157.689 93.4323 159.337 91.8684C160.973 90.3154 162.573 90.6063 163.74 91.8366C164.908 93.0668 165.225 94.7954 163.588 96.3483Z" fill="black"/>
<path d="M170.007 103.751C168.15 105.088 167.252 107.154 168.879 109.413C170.328 111.426 172.215 111.171 173.414 110.702L172.797 109.845C171.533 110.361 170.428 110.032 169.606 108.889C168.4 107.214 169.135 105.798 170.39 104.776L174.074 109.892L174.437 109.63C176.424 108.2 176.744 106.235 175.463 104.456C174.183 102.677 172.085 102.255 170.007 103.751ZM171.118 104.253C172.26 103.43 173.811 103.694 174.736 104.979C175.69 106.304 175.326 107.689 174.184 108.512L171.118 104.253Z" fill="black"/>
<path d="M180.178 123.533C181.679 122.709 181.149 121.011 180.844 119.39C180.593 118.068 180.564 117.517 181.294 117.117C181.995 116.733 182.617 117.267 183.071 118.095C183.718 119.273 183.579 120.152 182.555 120.714L183.063 121.64C184.157 121.039 185.019 119.782 183.857 117.664C183.018 116.135 181.796 115.637 180.73 116.222C179.524 116.884 179.626 118.069 179.943 119.611C180.215 120.939 180.624 122.084 179.6 122.645C178.815 123.076 178.242 122.697 177.595 121.519C176.833 120.13 176.993 119.057 178.339 118.318L177.832 117.393C176.176 118.301 175.609 119.762 176.81 121.95C177.918 123.97 179.154 124.095 180.178 123.533Z" fill="black"/>
<path d="M190.96 129.637C191.187 130.184 191.835 130.453 192.382 130.226C192.914 130.006 193.182 129.358 192.956 128.811C192.729 128.264 192.087 128.01 191.555 128.231C191.008 128.457 190.734 129.091 190.96 129.637ZM181.425 130.868L183.507 135.894L184.335 135.551L183.484 133.496L189.308 131.084C189.825 130.87 190.082 130.486 189.747 129.845L188.987 128.428L188.16 128.771L188.914 130.174L183.104 132.58L182.253 130.525L181.425 130.868Z" fill="black"/>
<path d="M195.753 148.357C195.561 147.663 195.433 147.499 194.711 146.753C194.992 145.911 194.967 144.922 194.723 144.043C194.129 141.9 192.676 140.493 190.548 141.083C188.22 141.729 187.889 143.946 189.106 146.182L188.798 146.267C188.112 145.229 187.414 144.21 186.728 143.172L186.029 143.648C187.131 145.285 188.98 148.541 187.161 149.046C185.897 149.397 185.303 147.735 184.119 143.464L183.255 143.703C184.645 148.714 185.454 150.615 187.443 150.064C189.155 149.589 188.857 147.795 188.037 146.097C189.55 148.201 190.969 149.185 192.665 148.715C193.374 148.518 193.9 148.14 194.26 147.642C194.577 147.886 194.762 148.134 194.89 148.596L195.078 149.274L195.942 149.035L195.753 148.357ZM189.342 145.535C188.889 143.901 189.165 142.563 190.83 142.101C192.48 141.643 193.407 142.648 193.86 144.283C194.313 145.917 194.032 147.24 192.383 147.697C190.718 148.159 189.796 147.17 189.342 145.535Z" fill="black"/>
<path d="M197.505 161.728C197.692 163.107 197.135 163.877 195.455 164.106L190.667 164.758L190.809 165.804L195.724 165.135C197.848 164.846 198.66 163.573 198.425 161.845C198.192 160.133 197.089 159.266 195.619 159.143L195.576 158.826L196.39 158.876L197.833 158.68L197.69 157.634L189.842 158.702L189.985 159.748L193.584 159.258C195.676 158.973 197.269 160 197.505 161.728Z" fill="black"/>
<path d="M192.891 184.021C192.315 184.006 191.987 184.318 191.972 184.878L191.958 185.421C191.899 187.677 194.219 188.314 195.899 188.357C199.737 188.458 202.753 185.752 202.862 181.593C202.971 177.435 200.105 174.415 196.266 174.314C192.267 174.21 189.284 176.917 189.45 181.562L189.634 186.785L190.529 186.809L190.346 181.586C190.196 177.517 192.82 175.12 196.243 175.21C199.506 175.295 202.06 177.987 201.966 181.57C201.872 185.153 199.185 187.547 195.922 187.462C194.499 187.425 192.811 187.06 192.854 185.445L192.863 185.077L199.565 185.252L199.593 184.197L198.761 184.175L197.957 184.314L197.965 183.994C199.253 183.708 200.258 182.614 200.305 180.838C200.365 178.535 198.662 176.938 196.295 176.876C193.912 176.814 192.128 178.319 192.068 180.623C192.021 182.398 192.968 183.543 194.239 183.897L194.23 184.216L193.435 184.036L192.891 184.021ZM192.958 180.854C193.002 179.159 193.996 177.872 196.267 177.932C198.523 177.991 199.448 179.327 199.404 181.023C199.359 182.718 198.361 184.164 196.106 184.105C193.835 184.046 192.914 182.549 192.958 180.854Z" fill="black"/>
<path d="M196.381 206.101C196.518 205.394 196.477 205.19 196.164 204.2C196.791 203.572 197.21 202.676 197.384 201.78C197.808 199.597 197.136 197.69 194.968 197.269C192.596 196.808 191.31 198.644 191.403 201.188L191.089 201.127C190.938 199.892 190.768 198.669 190.617 197.434L189.78 197.548C190.035 199.505 190.237 203.244 188.384 202.884C187.096 202.633 187.306 200.881 188.152 196.531L187.272 196.36C186.28 201.464 186.156 203.526 188.182 203.92C189.926 204.259 190.459 202.521 190.483 200.635C190.899 203.193 191.729 204.707 193.457 205.043C194.18 205.184 194.819 205.08 195.364 204.794C195.538 205.154 195.593 205.458 195.502 205.93L195.367 206.621L196.247 206.792L196.381 206.101ZM191.902 200.715C192.226 199.05 193.07 197.976 194.767 198.305C196.447 198.632 196.828 199.945 196.504 201.609C196.181 203.274 195.339 204.333 193.659 204.007C191.962 203.677 191.579 202.38 191.902 200.715Z" fill="black"/>
<path d="M190.907 224.506C191.497 222.883 190.87 221.752 189.627 220.959L189.692 220.778C191.095 221.136 192.291 220.702 192.778 219.364C193.369 217.741 192.742 216.61 191.498 215.817L191.607 215.516L192.304 215.94L193.673 216.438L194.034 215.446L186.591 212.737L186.23 213.729L189.643 214.971C191.628 215.694 192.614 217.194 192.062 218.712C191.597 219.99 190.704 220.057 189.261 219.532L184.72 217.879L184.359 218.871L187.772 220.113C189.757 220.836 190.743 222.336 190.19 223.854C189.725 225.132 188.833 225.199 187.389 224.674L182.849 223.021L182.487 224.013L187.344 225.781C188.938 226.361 190.365 225.995 190.907 224.506Z" fill="black"/>
<path d="M180.916 232.61C180.187 232.21 178.686 231.751 177.593 233.743C176.701 235.371 177.281 236.674 178.173 237.51L178.019 237.791L177.395 237.266L176.974 237.035C176.483 236.766 176.048 236.892 175.779 237.383L175.133 238.562L175.918 238.993L176.48 237.969L179.65 239.708C181.418 240.677 183.356 240.372 184.425 238.422C185.51 236.444 184.732 234.703 183.357 233.949L182.849 234.875C184.294 235.667 184.209 236.953 183.64 237.991C182.955 239.239 181.86 239.606 180.397 238.913L181.715 235.877C182.414 234.271 181.996 233.202 180.916 232.61ZM180.492 233.582C181.236 233.99 181.277 234.614 180.853 235.586L179.611 238.482C178.054 237.628 177.425 235.914 178.333 234.258C178.825 233.361 179.609 233.097 180.492 233.582Z" fill="black"/>
<path d="M177.212 252.287C176.869 252.769 176.984 253.461 177.466 253.804C177.935 254.139 178.627 254.023 178.971 253.541C179.315 253.059 179.19 252.38 178.721 252.046C178.239 251.702 177.556 251.805 177.212 252.287ZM171.116 244.853L167.957 249.282L168.686 249.802L169.978 247.992L175.11 251.652C175.566 251.977 176.027 251.992 176.393 251.369L177.192 249.973L176.463 249.453L175.673 250.835L170.554 247.184L171.845 245.373L171.116 244.853Z" fill="black"/>
<path d="M163.757 254.579L160.111 258.701L160.782 259.295L162.255 257.629L169.733 264.244C170.272 264.721 170.784 264.747 171.201 264.154L172.141 262.85L171.47 262.256L170.541 263.549L162.955 256.838L164.429 255.172L163.757 254.579Z" fill="black"/>
</svg>
