<svg width="224" height="269" viewBox="0 0 224 269" fill="none" xmlns="http://www.w3.org/2000/svg">
<path d="M14.4083 76.3624L15.437 75.7444L10.5405 73.6839L11.7137 71.5978C11.9412 71.1997 11.9519 70.7827 11.6636 70.3959L10.8095 69.2851L9.90433 69.829L10.8792 71.1098L8.54927 75.2162L4.55282 68.5644L3.64763 69.1083L9.7041 79.1888L10.6093 78.645L9.12607 76.1763L10.0608 74.5321L14.4083 76.3624Z" fill="#F6F1F1"/>
<path d="M21.0963 70.2566C21.4313 71.0181 22.3428 72.2952 24.4224 71.3802C26.1213 70.6328 26.4546 69.245 26.2561 68.0389L26.549 67.91L26.7247 68.7067L26.918 69.146C27.1435 69.6586 27.5653 69.8227 28.0779 69.5971L29.3081 69.0559L28.9473 68.2358L27.8782 68.7061L26.4219 65.3963C25.6101 63.551 23.8867 62.6137 21.851 63.5093C19.786 64.4179 19.3437 66.2731 19.9751 67.7083L20.9417 67.283C20.278 65.7746 21.1281 64.8063 22.2118 64.3295C23.5152 63.756 24.6071 64.1321 25.3458 65.5726L22.4513 67.1782C20.9194 68.027 20.6001 69.1289 21.0963 70.2566ZM22.0242 69.7434C21.6827 68.9672 22.0307 68.4471 22.9586 67.9339L25.7066 66.3927C26.4219 68.0184 25.8776 69.7611 24.1495 70.5214C23.2122 70.9338 22.4301 70.6661 22.0242 69.7434Z" fill="#F6F1F1"/>
<path d="M36.6309 66.4169L37.6408 66.1082L35.5406 59.238L39.6269 58.1562L39.3649 57.2993L35.2634 58.3859C34.5655 58.5657 34.3624 58.9959 34.5729 59.6845L36.6309 66.4169Z" fill="#F6F1F1"/>
<path d="M48.9359 53.6554C49.517 53.5424 49.9093 52.9609 49.7963 52.3798C49.6864 51.8143 49.1049 51.4221 48.5238 51.535C47.9426 51.648 47.5661 52.2264 47.676 52.7919C47.7889 53.373 48.3547 53.7683 48.9359 53.6554ZM48.2405 63.2441L53.5805 62.2063L53.4096 61.3268L51.2264 61.7511L50.0238 55.5628C49.9169 55.0131 49.5924 54.685 48.8978 54.8852L47.3577 55.3475L47.5286 56.2271L49.053 55.7678L50.2527 61.9403L48.0695 62.3646L48.2405 63.2441Z" fill="#F6F1F1"/>
<path d="M69.8506 52.4888C68.125 52.5792 67.3292 53.5982 67.085 55.053L66.8932 55.0631C66.6741 53.6326 65.8082 52.7006 64.3861 52.7751C62.6605 52.8655 61.8647 53.8845 61.6205 55.3393L61.3009 55.356L61.4188 54.5487L61.3427 53.0947L60.2881 53.15L60.7024 61.0591L61.757 61.0039L61.567 57.3769C61.4565 55.2677 62.4517 53.7736 64.0655 53.6891C65.4236 53.618 65.8338 54.4136 65.9142 55.9475L66.1669 60.7729L67.2215 60.7176L67.0315 57.0906C66.921 54.9815 67.9162 53.4874 69.53 53.4029C70.8881 53.3317 71.2983 54.1273 71.3787 55.6612L71.6314 60.4866L72.686 60.4314L72.4156 55.2705C72.3269 53.5768 71.4325 52.406 69.8506 52.4888Z" fill="#F6F1F1"/>
<path d="M87.5094 59.3083C87.6661 57.6035 85.9616 57.0933 84.4471 56.44C83.2105 55.9086 82.7385 55.6242 82.8147 54.7957C82.8879 53.999 83.679 53.7825 84.6191 53.8689C85.9574 53.9919 86.6087 54.5981 86.5018 55.7612L87.5534 55.8578C87.6676 54.615 87.1069 53.1978 84.7011 52.9767C82.9644 52.8171 81.8686 53.5518 81.7573 54.7627C81.6313 56.133 82.6708 56.7105 84.1261 57.3102C85.38 57.8272 86.5574 58.1282 86.4505 59.2913C86.3685 60.1835 85.7338 60.4465 84.3954 60.3235C82.818 60.1786 82.0177 59.4462 82.1583 57.9167L81.1067 57.82C80.9339 59.7001 81.8279 60.9873 84.3134 61.2158C86.6077 61.4266 87.4025 60.4714 87.5094 59.3083Z" fill="#F6F1F1"/>
<path d="M94.7521 60.1708C94.5756 60.9838 94.5624 62.5527 96.7826 63.0348C98.5964 63.4287 99.6817 62.5019 100.23 61.4094L100.543 61.4773L100.217 62.2251L100.115 62.6942C99.996 63.2414 100.241 63.622 100.788 63.7408L102.101 64.026L102.292 63.1504L101.15 62.9026L101.917 59.3689C102.345 57.3988 101.502 55.6276 99.3285 55.1556C97.1239 54.6769 95.6756 55.9179 95.3429 57.4502L96.3748 57.6742C96.7245 56.0638 97.9814 55.78 99.1384 56.0312C100.53 56.3334 101.192 57.2795 100.943 58.8791L97.6578 58.4767C95.9195 58.263 95.0136 58.9668 94.7521 60.1708ZM95.8045 60.301C95.9844 59.4723 96.5717 59.256 97.624 59.3863L100.753 59.7547C100.376 61.4902 98.9116 62.5802 97.0666 62.1796C96.0659 61.9623 95.5906 61.2861 95.8045 60.301Z" fill="#F6F1F1"/>
<path d="M109.123 66.0387L114.327 67.8307L114.618 66.9835L112.516 66.2594L115.766 56.8194C116.001 56.1386 115.828 55.6562 115.122 55.4975L113.557 55.1278L113.265 55.975L114.815 56.3394L111.517 65.9156L109.414 65.1915L109.123 66.0387Z" fill="#F6F1F1"/>
<path d="M122.606 66.7442C121.612 68.805 121.809 71.0492 124.316 72.2588C126.55 73.3362 128.087 72.2123 128.918 71.2273L127.966 70.7685C127.101 71.8256 125.974 72.0634 124.706 71.4517C122.847 70.555 122.817 68.9596 123.433 67.4624L129.11 70.2012L129.305 69.7977C130.369 67.5928 129.712 65.7129 127.738 64.7606C125.764 63.8082 123.719 64.4384 122.606 66.7442ZM123.822 66.6554C124.433 65.3872 125.922 64.8794 127.349 65.5676C128.819 66.2766 129.16 67.6672 128.549 68.9354L123.822 66.6554Z" fill="#F6F1F1"/>
<path d="M142.823 73.2761C141.378 72.3286 140 72.5921 138.942 73.6209L138.675 73.4455L139.247 72.8642L142.151 68.4352L141.268 67.8562L134.82 77.6909L135.703 78.2699L137.694 75.2325C138.852 73.4663 140.672 72.9375 142.131 73.8938C143.295 74.657 143.511 75.5828 142.581 77.0012L139.931 81.0421L140.814 81.6211L143.534 77.4731C144.709 75.6802 144.281 74.2323 142.823 73.2761Z" fill="#F6F1F1"/>
<path d="M148.41 87.6293C148.926 88.059 149.717 88.0091 150.167 87.4678C150.607 86.9388 150.512 86.1523 149.996 85.7226C149.467 85.2826 148.7 85.353 148.261 85.882C147.81 86.4233 147.881 87.1894 148.41 87.6293Z" fill="#F6F1F1"/>
<path d="M161.432 99.8457L169.962 91.7506L169.236 90.9846L165.51 94.52L165.04 95.1868L164.82 94.9546C165.528 93.8414 165.454 92.3456 164.231 91.0573C162.645 89.386 160.323 89.4724 158.605 91.1024C156.876 92.7434 156.668 95.0581 158.254 96.7293C159.477 98.0176 160.967 98.1698 162.115 97.5208L162.336 97.7529L161.645 98.1876L160.705 99.0797L161.432 99.8457ZM163.583 96.3483C161.935 97.9122 160.226 97.5053 159.058 96.2751C157.891 95.0448 157.684 93.4323 159.332 91.8684C160.969 90.3154 162.568 90.6063 163.736 91.8366C164.903 93.0668 165.22 94.7954 163.583 96.3483Z" fill="#F6F1F1"/>
<path d="M170.003 103.751C168.146 105.088 167.247 107.154 168.874 109.413C170.323 111.426 172.21 111.171 173.41 110.702L172.793 109.845C171.528 110.361 170.424 110.032 169.601 108.889C168.395 107.214 169.13 105.798 170.386 104.776L174.069 109.892L174.432 109.63C176.419 108.2 176.739 106.235 175.459 104.456C174.178 102.677 172.08 102.255 170.003 103.751ZM171.113 104.253C172.256 103.43 173.806 103.694 174.731 104.979C175.685 106.304 175.322 107.689 174.179 108.512L171.113 104.253Z" fill="#F6F1F1"/>
<path d="M180.174 123.533C181.675 122.709 181.144 121.011 180.839 119.39C180.588 118.068 180.56 117.517 181.289 117.117C181.991 116.733 182.613 117.267 183.067 118.095C183.713 119.273 183.575 120.152 182.551 120.714L183.059 121.64C184.153 121.039 185.014 119.782 183.852 117.664C183.013 116.135 181.791 115.637 180.725 116.222C179.519 116.884 179.621 118.069 179.938 119.611C180.211 120.939 180.62 122.084 179.595 122.645C178.81 123.076 178.237 122.697 177.591 121.519C176.829 120.13 176.988 119.057 178.335 118.318L177.827 117.393C176.172 118.301 175.604 119.762 176.805 121.95C177.913 123.97 179.15 124.095 180.174 123.533Z" fill="#F6F1F1"/>
<path d="M190.956 129.637C191.182 130.184 191.83 130.453 192.377 130.226C192.909 130.006 193.178 129.358 192.951 128.811C192.725 128.264 192.083 128.01 191.551 128.231C191.004 128.457 190.729 129.091 190.956 129.637ZM181.421 130.868L183.503 135.894L184.33 135.551L183.479 133.496L189.303 131.084C189.821 130.87 190.077 130.486 189.743 129.845L188.983 128.428L188.155 128.771L188.909 130.174L183.1 132.58L182.248 130.525L181.421 130.868Z" fill="#F6F1F1"/>
<path d="M195.749 148.357C195.556 147.663 195.428 147.499 194.706 146.753C194.988 145.911 194.962 144.922 194.719 144.043C194.124 141.9 192.671 140.493 190.544 141.083C188.216 141.729 187.884 143.946 189.102 146.182L188.793 146.267C188.107 145.229 187.409 144.21 186.723 143.172L186.025 143.648C187.126 145.285 188.976 148.541 187.157 149.046C185.892 149.397 185.299 147.735 184.114 143.464L183.251 143.703C184.64 148.714 185.45 150.615 187.439 150.064C189.15 149.589 188.852 147.795 188.032 146.097C189.546 148.201 190.964 149.185 192.66 148.715C193.369 148.518 193.896 148.14 194.255 147.642C194.572 147.886 194.757 148.134 194.885 148.596L195.074 149.274L195.937 149.035L195.749 148.357ZM189.338 145.535C188.884 143.901 189.161 142.563 190.826 142.101C192.476 141.643 193.402 142.648 193.855 144.283C194.308 145.917 194.028 147.24 192.378 147.697C190.713 148.159 189.791 147.17 189.338 145.535Z" fill="#F6F1F1"/>
<path d="M197.5 161.728C197.687 163.107 197.13 163.877 195.45 164.106L190.662 164.758L190.804 165.804L195.719 165.135C197.843 164.846 198.655 163.573 198.42 161.845C198.187 160.133 197.084 159.266 195.614 159.143L195.571 158.826L196.385 158.876L197.828 158.68L197.685 157.634L189.838 158.702L189.98 159.748L193.579 159.258C195.672 158.973 197.265 160 197.5 161.728Z" fill="#F6F1F1"/>
<path d="M192.887 184.021C192.311 184.006 191.983 184.318 191.968 184.878L191.954 185.421C191.895 187.677 194.215 188.314 195.894 188.357C199.733 188.458 202.749 185.752 202.858 181.593C202.966 177.435 200.1 174.415 196.262 174.314C192.263 174.21 189.279 176.917 189.446 181.562L189.629 186.785L190.525 186.809L190.341 181.586C190.192 177.517 192.815 175.12 196.238 175.21C199.501 175.295 202.056 177.987 201.962 181.57C201.868 185.153 199.181 187.547 195.918 187.462C194.494 187.425 192.807 187.06 192.849 185.445L192.859 185.077L199.561 185.252L199.588 184.197L198.757 184.175L197.953 184.314L197.961 183.994C199.249 183.708 200.254 182.614 200.3 180.838C200.361 178.535 198.658 176.938 196.291 176.876C193.907 176.814 192.123 178.319 192.063 180.623C192.017 182.398 192.963 183.543 194.234 183.897L194.226 184.216L193.43 184.036L192.887 184.021ZM192.953 180.854C192.998 179.159 193.992 177.872 196.263 177.932C198.518 177.991 199.444 179.327 199.399 181.023C199.355 182.718 198.357 184.164 196.102 184.105C193.83 184.046 192.909 182.549 192.953 180.854Z" fill="#F6F1F1"/>
<path d="M196.376 206.101C196.514 205.394 196.472 205.19 196.159 204.2C196.786 203.572 197.205 202.676 197.379 201.78C197.803 199.597 197.131 197.69 194.963 197.269C192.592 196.808 191.306 198.644 191.398 201.188L191.084 201.127C190.933 199.892 190.763 198.669 190.612 197.434L189.775 197.548C190.03 199.505 190.233 203.244 188.379 202.884C187.091 202.633 187.301 200.881 188.147 196.531L187.268 196.36C186.275 201.464 186.152 203.526 188.178 203.92C189.921 204.259 190.455 202.521 190.479 200.635C190.894 203.193 191.725 204.707 193.452 205.043C194.175 205.184 194.814 205.08 195.359 204.794C195.533 205.154 195.588 205.458 195.497 205.93L195.363 206.621L196.242 206.792L196.376 206.101ZM191.898 200.715C192.221 199.05 193.066 197.976 194.762 198.305C196.443 198.632 196.823 199.945 196.5 201.609C196.176 203.274 195.334 204.333 193.654 204.007C191.958 203.677 191.574 202.38 191.898 200.715Z" fill="#F6F1F1"/>
<path d="M190.902 224.506C191.493 222.883 190.866 221.752 189.622 220.959L189.688 220.778C191.09 221.136 192.286 220.702 192.773 219.364C193.364 217.741 192.737 216.61 191.493 215.817L191.603 215.516L192.3 215.94L193.668 216.438L194.029 215.446L186.587 212.737L186.226 213.729L189.639 214.971C191.623 215.694 192.61 217.194 192.057 218.712C191.592 219.99 190.699 220.057 189.256 219.532L184.715 217.879L184.354 218.871L187.767 220.113C189.752 220.836 190.738 222.336 190.186 223.854C189.721 225.132 188.828 225.199 187.385 224.674L182.844 223.021L182.483 224.013L187.339 225.781C188.933 226.361 190.36 225.995 190.902 224.506Z" fill="#F6F1F1"/>
<path d="M180.911 232.61C180.182 232.21 178.681 231.751 177.588 233.743C176.696 235.371 177.276 236.674 178.168 237.51L178.014 237.791L177.39 237.266L176.969 237.035C176.478 236.766 176.043 236.892 175.774 237.383L175.128 238.562L175.913 238.993L176.475 237.969L179.645 239.708C181.413 240.677 183.351 240.372 184.42 238.422C185.505 236.444 184.727 234.703 183.352 233.949L182.844 234.875C184.289 235.667 184.204 236.953 183.635 237.991C182.95 239.239 181.855 239.606 180.392 238.913L181.71 235.877C182.409 234.271 181.991 233.202 180.911 232.61ZM180.488 233.582C181.231 233.99 181.272 234.614 180.848 235.586L179.606 238.482C178.049 237.628 177.42 235.914 178.328 234.258C178.82 233.361 179.604 233.097 180.488 233.582Z" fill="#F6F1F1"/>
<path d="M177.208 252.287C176.864 252.769 176.98 253.461 177.462 253.804C177.931 254.139 178.623 254.023 178.966 253.541C179.31 253.059 179.185 252.38 178.716 252.046C178.234 251.702 177.551 251.805 177.208 252.287ZM171.111 244.853L167.952 249.282L168.682 249.802L169.973 247.992L175.106 251.652C175.561 251.977 176.023 251.992 176.389 251.369L177.188 249.973L176.458 249.453L175.669 250.835L170.549 247.184L171.841 245.373L171.111 244.853Z" fill="#F6F1F1"/>
<path d="M163.753 254.579L160.106 258.701L160.777 259.295L162.25 257.629L169.728 264.244C170.267 264.721 170.779 264.747 171.196 264.154L172.137 262.85L171.465 262.256L170.536 263.549L162.95 256.838L164.424 255.172L163.753 254.579Z" fill="#F6F1F1"/>
</svg>
